<?xml version="1.0" encoding="UTF-8"?>
<svg id="_mi_" data-name=" mi " xmlns="http://www.w3.org/2000/svg" viewBox="0 0 12 8.51">
  <g id="misskey">
    <path d="M4.47,6.7c-.52,0-.97-.31-1.18-.68-.11-.16-.33-.22-.34,0v1.01c0,.4-.15.75-.44,1.05-.28.29-.63.43-1.04.43s-.75-.14-1.04-.43c-.3-.29-.44-.64-.44-1.05V1.48c0-.31.09-.59.26-.85C.45.37.68.19.96.09,1.13.03,1.3,0,1.46,0,1.91,0,2.29.18,2.59.53l1.5,1.76s.13.22.37.22.35-.19.38-.22l1.49-1.76C6.63.18,7.01,0,7.46,0c.17,0,.33.03.5.09.28.1.51.28.69.54.18.25.28.54.28.85v5.52c0,.4-.15.75-.44,1.05-.28.29-.63.43-1.04.43s-.75-.14-1.04-.43c-.28-.29-.43-.64-.43-1.05v-1.01c-.02-.27-.27-.1-.35,0-.23.42-.66.68-1.18.68l.02.02ZM10.72,2.55c-.35,0-.65-.12-.9-.37-.24-.25-.36-.56-.36-.91s.12-.65.36-.9c.25-.25.55-.38.9-.38s.65.13.9.38c.25.24.38.54.38.9s-.13.66-.38.91c-.25.24-.55.37-.9.37ZM10.74,2.81c.35,0,.65.13.89.38.25.25.38.56.38.91v3.12c0,.35-.13.66-.38.91-.24.24-.54.37-.89.37s-.65-.12-.9-.37c-.25-.25-.38-.56-.38-.91v-3.12c0-.35.13-.66.38-.91.25-.25.55-.38.9-.38Z"/>
  </g>
</svg>