<?xml version="1.0" encoding="UTF-8"?>
<svg version="1.1" xmlns="http://www.w3.org/2000/svg" xmlns:xlink="http://www.w3.org/1999/xlink" x="0px" y="0px" viewBox="0 0 512 512" style="opacity: 1;" xml:space="preserve" width="12px" height="12px">
<g id="misskey">
<path class="st0" d="M190.77 360.57c-22.18.08-41.22-13.43-50.19-29.14-4.8-6.86-14.29-9.31-14.42 0v43.01c0 17.27-6.22 32.21-18.68 44.8-12.11 12.22-26.88 18.34-44.33 18.34-17.07 0-31.85-6.11-44.32-18.35C6.06 406.65 0 391.71 0 374.44V137.94c0-13.31 3.74-25.36 11.22-36.15 7.82-11.15 17.8-18.9 29.91-23.2 7.13-2.53 14.25-3.78 21.34-3.78 19.23 0 35.25 7.56 48.06 22.67l63.94 75.01c1.43 1.07 5.61 9.32 15.61 9.32 10.03 0 14.75-8.25 16.17-9.34l63.39-75c13.18-15.11 29.38-22.67 48.6-22.67 7.12 0 14.24 1.26 21.36 3.78 12.09 4.3 21.89 12.04 29.38 23.2 7.82 10.79 11.74 22.84 11.74 36.15v235.5c0 17.27-6.22 32.21-18.68 44.8-12.11 12.22-26.89 18.34-44.33 18.34-17.08 0-31.85-6.11-44.33-18.35-12.09-12.58-18.14-27.52-18.14-44.79v-43.01c-1.06-11.73-11.31-4.33-14.95 0-9.61 17.99-28.03 29.05-50.18 29.14ZM457.53 183.68c-14.95 0-27.77-5.22-38.44-15.65-10.32-10.79-15.48-23.74-15.48-38.85s5.16-27.88 15.48-38.31c10.67-10.79 23.49-16.18 38.44-16.18 14.95 0 27.77 5.39 38.45 16.18 10.67 10.43 16.01 23.2 16.01 38.31 0 15.11-5.34 28.06-16.01 38.85-10.68 10.43-23.5 15.65-38.45 15.65Zm.53 10.81c14.95 0 27.6 5.39 37.92 16.18 10.67 10.79 16.01 23.74 16.01 38.86v133.3c0 15.11-5.34 28.06-16.01 38.85-10.32 10.43-22.97 15.65-37.92 15.65-14.94 0-27.76-5.22-38.44-15.65-10.67-10.79-16.01-23.74-16.01-38.85v-133.3c0-15.11 5.34-28.07 16.01-38.86 10.67-10.79 23.49-16.18 38.44-16.18Z"/>
</g>
</svg>